<?xml version="1.0" encoding="utf-8"?>
<!-- Generator: Adobe Illustrator 16.0.0, SVG Export Plug-In . SVG Version: 6.00 Build 0)  -->
<!DOCTYPE svg PUBLIC "-//W3C//DTD SVG 1.1//EN" "http://www.w3.org/Graphics/SVG/1.1/DTD/svg11.dtd">
<svg version="1.1" id="Layer_1" xmlns="http://www.w3.org/2000/svg" xmlns:xlink="http://www.w3.org/1999/xlink" x="0px" y="0px"
	 width="285px" height="65px" viewBox="0 0 285 65" enable-background="new 0 0 285 65" xml:space="preserve">
<g>
	<polygon fill="#F8F40B" points="275.616,2.289 267.665,2.289 17.335,2.289 9.384,2.289 2.119,2.289 2.119,9.554 2.119,13.269 
		2.119,51.733 2.119,55.447 2.119,62.711 9.384,62.711 17.335,62.711 267.665,62.711 275.616,62.711 282.881,62.711 282.881,55.447 
		282.881,51.733 282.881,13.269 282.881,9.554 282.881,2.289 	"/>
	<rect x="100.474" y="18.43" fill="#070606" width="5.489" height="4.522"/>
	<path fill="#070606" d="M14.079,39.539c0.037,2.394,2.049,3.359,4.214,3.359c1.586,0,3.593-0.618,3.593-2.552
		c0-1.661-2.279-2.24-6.224-3.091c-3.167-0.697-6.341-1.818-6.341-5.334c0-5.104,4.413-6.419,8.702-6.419
		c4.366,0,8.386,1.469,8.812,6.38h-5.218c-0.155-2.128-1.779-2.708-3.75-2.708c-1.237,0-3.055,0.231-3.055,1.856
		c0,1.971,3.094,2.241,6.225,2.978c3.208,0.735,6.341,1.896,6.341,5.606c0,5.255-4.563,6.957-9.126,6.957
		c-4.638,0-9.159-1.74-9.395-7.033H14.079z"/>
	<path fill="#070606" d="M41.871,36.25c-0.929,0.811-2.863,0.85-4.562,1.162c-1.703,0.346-3.25,0.928-3.25,2.935
		c0,2.05,1.587,2.554,3.361,2.554c4.293,0,4.45-3.401,4.45-4.601V36.25z M29.191,32.192c0.307-5.143,4.907-6.689,9.393-6.689
		c3.983,0,8.778,0.891,8.778,5.683v10.401c0,1.818,0.19,3.631,0.694,4.443h-5.567c-0.195-0.616-0.347-1.273-0.387-1.932
		c-1.737,1.817-4.292,2.474-6.726,2.474c-3.789,0-6.803-1.896-6.803-5.993c0-4.522,3.4-5.604,6.803-6.068
		c3.363-0.502,6.495-0.386,6.495-2.629c0-2.355-1.624-2.708-3.559-2.708c-2.085,0-3.438,0.854-3.636,3.019H29.191z"/>
	<path fill="#070606" d="M49.681,18.43h5.489v10.396h0.117c1.391-2.238,3.788-3.323,5.837-3.323c5.838,0,7.306,3.285,7.306,8.234
		V46.03h-5.491V34.744c0-3.288-0.962-4.911-3.516-4.911c-2.978,0-4.252,1.661-4.252,5.722V46.03h-5.489V18.43z"/>
	<path fill="#070606" d="M70.828,26.045h5.49V46.03h-5.49V26.045z M76.318,22.952h-5.49V18.43h5.49V22.952z"/>
	<path fill="#070606" d="M88.774,29.641c-3.249,0-4.676,3.052-4.676,6.416c0,3.327,1.427,6.38,4.676,6.38
		c3.247,0,4.677-3.053,4.677-6.38C93.452,32.692,92.021,29.641,88.774,29.641 M78.8,18.43h5.491V28.48h0.078
		c1.348-2.05,3.826-2.978,6.3-2.978c3.983,0,8.272,3.207,8.272,10.517c0,7.348-4.289,10.553-8.272,10.553
		c-2.937,0-5.373-0.888-6.571-3.094H84.02v2.552H78.8V18.43z"/>
	<rect x="194.261" y="41.507" fill="#070606" width="5.486" height="4.523"/>
	<rect x="100.473" y="26.045" fill="#070606" width="5.49" height="19.985"/>
	<path fill="#070606" d="M108.447,26.045h5.217v2.781h0.117c1.393-2.24,3.787-3.323,6.109-3.323c5.838,0,7.306,3.287,7.306,8.234
		V46.03h-5.489V34.744c0-3.288-0.967-4.911-3.519-4.911c-2.977,0-4.252,1.661-4.252,5.722V46.03h-5.489V26.045z"/>
	<path fill="#070606" d="M139.168,29.639c-3.596,0-4.834,3.093-4.834,6.381c0,3.131,1.434,6.415,4.834,6.415
		c3.632,0,4.72-3.168,4.72-6.455C143.888,32.731,142.727,29.639,139.168,29.639 M143.961,43.48h-0.073
		c-1.28,2.164-3.522,3.092-6.074,3.092c-6.029,0-8.97-5.18-8.97-10.709c0-5.374,2.977-10.36,8.855-10.36
		c2.356,0,4.677,1.004,5.916,2.978h0.076V18.43h5.49V46.03h-5.221V43.48z"/>
	<path fill="#070606" d="M165.098,33.892c-0.504-2.782-1.701-4.253-4.369-4.253c-3.482,0-4.487,2.707-4.563,4.253H165.098z
		 M156.166,37.371c0.152,3.479,1.854,5.063,4.908,5.063c2.205,0,3.981-1.35,4.332-2.59h4.83c-1.549,4.72-4.83,6.728-9.355,6.728
		c-6.301,0-10.202-4.327-10.202-10.516c0-5.991,4.135-10.554,10.202-10.554c6.807,0,10.093,5.722,9.707,11.868H156.166z"/>
	<path fill="#070606" d="M171.9,26.045h5.218v2.781h0.12c1.388-2.24,3.784-3.323,6.107-3.323c5.835,0,7.305,3.287,7.305,8.234V46.03
		h-5.49V34.744c0-3.288-0.967-4.911-3.52-4.911c-2.975,0-4.25,1.661-4.25,5.722V46.03h-5.49V26.045z"/>
	<path fill="#070606" d="M216.594,33.054c-0.352-2.244-1.777-3.443-4.063-3.443c-3.517,0-4.677,3.557-4.677,6.496
		c0,2.859,1.121,6.302,4.563,6.302c2.552,0,4.021-1.624,4.369-4.06h5.298c-0.698,5.297-4.371,8.194-9.628,8.194
		c-6.031,0-10.092-4.251-10.092-10.242c0-6.224,3.712-10.823,10.209-10.823c4.715,0,9.046,2.472,9.392,7.576H216.594z"/>
	<path fill="#070606" d="M233.719,42.408c3.748,0,4.869-3.208,4.869-6.38c0-3.208-1.121-6.418-4.869-6.418
		c-3.715,0-4.835,3.21-4.835,6.418C228.884,39.2,230.004,42.408,233.719,42.408 M233.719,25.478c6.298,0,10.358,4.172,10.358,10.551
		c0,6.344-4.061,10.515-10.358,10.515c-6.268,0-10.324-4.171-10.324-10.515C223.395,29.649,227.451,25.478,233.719,25.478"/>
	<path fill="#070606" d="M245.597,26.016h5.184v2.706h0.077c1.429-2.048,3.517-3.244,6.108-3.244c2.513,0,4.755,0.925,5.838,3.32
		c1.16-1.738,3.247-3.32,6.032-3.32c4.248,0,7.305,1.97,7.305,7.148v13.375h-5.49V34.675c0-2.667-0.232-4.869-3.362-4.869
		c-3.095,0-3.673,2.551-3.673,5.065v11.13h-5.49V34.795c0-2.322,0.153-4.989-3.326-4.989c-1.08,0-3.709,0.695-3.709,4.601v11.595
		h-5.493V26.016z"/>
</g>
</svg>
